<svg xmlns="http://www.w3.org/2000/svg" width="192" height="192">
  <g fill="none">
    <path d="M0 0h192v192H0z"/>
    <path d="M36.227 122.934L53.655 11.388a4 4 0 0 1 7.477-1.275l18.74 34.96zm65.373 59.553a11.989 11.989 0 0 1-11.696-.02L32 150 136.636 45.175a3.994 3.994 0 0 1 6.771 2.164l8.292 51.302A46.308 46.308 0 0 0 144 98c-25.405 0-46 20.595-46 46 0 12.856 5.274 24.48 13.775 32.827zM33.584 139.92L92.461 34.888a3.999 3.999 0 0 1 7.081 0l13.406 25.525zM104 144c0-22.091 17.909-40 40-40s40 17.909 40 40-17.909 40-40 40-40-17.909-40-40zm20 0c0 11 9 20 20 20s20-9 20-20-9-20-20-20-20 9-20 20zm20 8c-4.2 0-7.8 1.6-10.6 4-3.2-3-5.4-7.2-5.4-12 0-8.8 7.2-16 16-16s16 7.2 16 16c0 4.8-2.2 9-5.4 12-2.8-2.4-6.4-4-10.6-4zm-12-12c0 1.2.8 2 2 2s2-.8 2-2-.8-2-2-2-2 .8-2 2zm8-8c-1.2 0-2 .8-2 2s.8 2 2 2 2-.8 2-2-.8-2-2-2zm12 8c0 1.2.8 2 2 2s2-.8 2-2-.8-2-2-2-2 .8-2 2zm-11.332 1.774a4 4 0 1 0 7.266 2.946c.672-3.42 1.342-6.84 2.012-10.26a2 2 0 0 0-3.632-1.536z" fill="#fff"/>
  </g>
</svg>
